<?xml version="1.0" encoding="utf-8"?>
<!-- Generator: Adobe Illustrator 16.0.0, SVG Export Plug-In . SVG Version: 6.00 Build 0)  -->
<!DOCTYPE svg PUBLIC "-//W3C//DTD SVG 1.1//EN" "http://www.w3.org/Graphics/SVG/1.1/DTD/svg11.dtd" [
	<!ENTITY ns_extend "http://ns.adobe.com/Extensibility/1.0/">
	<!ENTITY ns_ai "http://ns.adobe.com/AdobeIllustrator/10.0/">
	<!ENTITY ns_graphs "http://ns.adobe.com/Graphs/1.0/">
	<!ENTITY ns_vars "http://ns.adobe.com/Variables/1.0/">
	<!ENTITY ns_imrep "http://ns.adobe.com/ImageReplacement/1.0/">
	<!ENTITY ns_sfw "http://ns.adobe.com/SaveForWeb/1.0/">
	<!ENTITY ns_custom "http://ns.adobe.com/GenericCustomNamespace/1.0/">
	<!ENTITY ns_adobe_xpath "http://ns.adobe.com/XPath/1.0/">
]>
<svg version="1.1" id="Layer_1" xmlns:x="&ns_extend;" xmlns:i="&ns_ai;" xmlns:graph="&ns_graphs;"
	 xmlns="http://www.w3.org/2000/svg" xmlns:xlink="http://www.w3.org/1999/xlink" x="0px" y="0px" width="824px" height="122px"
	 viewBox="53 27 824 122" enable-background="new 53 27 824 122" xml:space="preserve">
<metadata>
	<sfw  xmlns="&ns_sfw;">
		<slices></slices>
		<sliceSourceBounds  width="797.843" height="103.211" x="29.646" y="182.841" bottomLeftOrigin="true"></sliceSourceBounds>
		<optimizationSettings>
			<targetSettings  fileFormat="GIFFormat" targetSettingsID="0">
				
					<GIFFormat  transparency="true" matteColor="#FFFFFF" includeCaption="false" numColors="128" noMatteColor="false" webShiftPercent="0" interlaced="false" ditherAlgorithm="diffusion" autoReduce="false" ditherPercent="88" lossy="0" reductionAlgorithm="selective" rolloverMasterPalette="false">
					<colorTable  isExact="false"></colorTable>
					<lockedColors></lockedColors>
					<colorShiftEntries></colorShiftEntries>
				</GIFFormat>
			</targetSettings>
		</optimizationSettings>
	</sfw>
</metadata>
<g id="Background">
</g>
<g id="Guides">
</g>
<g id="Foreground">
	<g>
		<path fill="#0090D1" d="M109.822,106.167c2.475,0,4.724-1.565,4.724-4.724c0-13.142,8.266-24.353,19.885-28.718
			c-2.913-1.779-5.354-4.256-7.088-7.2c-13.185,6.573-22.242,20.189-22.242,35.918C105.101,104.602,107.35,106.167,109.822,106.167z
			 M179.347,106.167c2.473,0,4.723-1.565,4.723-4.724c0-15.729-9.056-29.346-22.241-35.918c-1.734,2.944-4.175,5.422-7.088,7.2
			c11.618,4.365,19.885,15.577,19.885,28.718C174.625,104.602,176.874,106.167,179.347,106.167z M68.819,104.189
			c0-16.041,13.004-29.046,29.048-29.046c4.178,0,8.15,0.882,11.741,2.47c-1.029-2.981-1.59-6.185-1.59-9.517
			c0-16.098,13.052-29.148,29.153-29.148c2.808,0,5.525,0.396,8.095,1.138l-0.59-0.04h-0.183
			c-7.932,0.382-14.246,6.941-14.246,14.965c0,8.027,6.314,14.586,14.246,14.967h0.183c7.931-0.381,14.245-6.94,14.245-14.967
			c0-3.693-1.338-7.077-3.556-9.691c4.019,3.214,7.168,7.469,9.039,12.358c5.627-3.054,12.074-4.789,18.928-4.789
			c21.943,0,39.731,17.786,39.731,39.728c0,14.992-8.304,28.045-20.565,34.807c0.085-5.447-4.785-13.336-14.401-22.193
			c-0.991,2.458-2.927,4.128-5.143,4.983c7.156,8.768,6.151,15.107-3.565,15.107c-7.606,0-18.741-3.886-29.376-9.778
			c5.774-3.721,8.927-5.71,13.729-10.06c2.249-2.037-1.812-6.888-6.771-2.432c-3.496,3.141-8.126,6.434-12.389,9.144
			c-4.258-2.71-11.298-8.009-14.794-11.148c-4.958-4.457-9.02,0.396-6.771,2.431c4.804,4.349,10.364,8.345,16.137,12.065
			c-6.332,3.506-12.84,6.307-18.678,7.993c0,0-0.817,0.242-1.266,0.352c-3.477,0.926-6.685,1.434-9.431,1.434
			c-9.716,0-10.722-6.34-3.566-15.107c-2.215-0.855-4.154-2.525-5.143-4.983c-12.409,11.428-16.914,21.242-13.073,26.283
			C76.814,127.479,68.819,116.768,68.819,104.189z M162.214,127.918c-5.192,3.654-11.524,5.803-18.358,5.803
			c-6.593,0-12.72-1.999-17.806-5.422c6.112-2.545,12.417-5.701,18.535-9.288C150.403,122.421,156.385,125.44,162.214,127.918z"/>
		<g>
			<path fill="#005BAB" d="M145.244,120.029v11.22l-10.012-6.836c3.038-1.526,6.076-3.178,9.07-4.934L145.244,120.029z
				 M109.327,78.089l-0.094-0.279l0.199,0.087c-0.413-1.19-0.749-2.417-1.005-3.673c0.653,0.51,1.287,1.04,1.897,1.586l2.421,2.168
				c-4.979,6.681-7.926,14.966-7.926,23.939c0,0.747,0.127,1.407,0.351,1.978L76.714,84.464c5.28-5.455,12.681-8.845,20.874-8.845
				C101.766,75.619,105.736,76.5,109.327,78.089z M145.244,70.39v41.549l-0.837,0.536c-4.259-2.706-9.556-5.901-13.052-9.041
				c-4.96-4.456-7.918,1.452-5.669,3.488c4.803,4.348,7.518,5.184,13.291,8.9c-3.156,1.75-6.356,3.321-9.495,4.668l-20.308-13.866
				l0.368,0.013c1.751,0,3.387-0.783,4.195-2.359c0.399-0.685,0.631-1.537,0.631-2.551c0-5.259,1.322-10.207,3.657-14.533
				c3.505-6.392,9.223-11.4,16.122-13.992l-0.153-0.095l0.257-0.098c-2.912-1.779-5.354-4.256-7.088-7.199
				c-3.437,1.712-6.592,3.903-9.379,6.485c3.103-5.272,7.367-9.943,12.497-13.725c1.373,6.563,7.039,11.553,13.928,11.885h0.184
				L145.244,70.39z"/>
			<path fill="#005BAB" d="M136.184,114.249l2.579,1.692c-2.325,1.282-4.673,2.468-7.002,3.537L136.184,114.249z M144.303,119.479
				c5.78,3.392,11.727,6.396,17.523,8.863c-5.154,3.566-11.408,5.657-18.15,5.657c-6.535,0-12.611-1.963-17.671-5.333
				C132.044,126.14,138.263,123.022,144.303,119.479z M174.197,98.952l-6.368,24.664c-2.849-0.857-5.846-1.973-8.896-3.298
				l-2.67-1.206c-2.141-1.006-4.293-2.107-6.429-3.29c5.775-3.718,7.754-4.675,12.557-9.022c2.248-2.036-0.639-7.923-5.598-3.466
				c-3.497,3.139-8.126,6.435-12.387,9.14c-1.241-0.785-2.716-1.794-4.27-2.903l24.992-29.563
				C170.151,84.927,173.487,91.557,174.197,98.952z M185.226,56.24l-6.609,25.595c-1.957-3.42-4.402-6.521-7.241-9.213
				L185.226,56.24z"/>
			<path fill="#32449B" d="M184.667,53.399l24.41,69.604c-2.078,1.789-4.342,3.369-6.758,4.701
				c0.083-5.447-4.787-13.336-14.402-22.193l-0.108,0.189l-0.062,0.145l-0.182,0.409l-3.676-4.53
				c0-15.729-9.057-29.344-22.241-35.916c-0.91,1.544-2.013,2.959-3.279,4.214l-3.606-4.478c0.813-0.896,1.515-1.89,2.094-2.962
				c1.202-2.157,1.886-4.641,1.886-7.285c0-2.406-0.566-4.681-1.575-6.696l0.883-0.07c2.61,2.753,4.688,6.017,6.069,9.625
				c5.626-3.053,12.073-4.789,18.926-4.789L184.667,53.399z"/>
			<path fill="#32449B" d="M95.791,75.675L71.38,116.791c-1.756-3.741-2.734-7.917-2.734-12.32c0-4.916,1.219-9.546,3.374-13.603
				C76.662,82.283,85.504,76.301,95.791,75.675z"/>
			<path fill="#005BAB" d="M222.775,93.09c0,7.044-1.835,13.659-5.049,19.394c-1.694,2.984-3.764,5.73-6.146,8.168
				c1.399-16.55,3.093-35.696,4.36-49.844C220.252,77.161,222.775,84.833,222.775,93.09z"/>
		</g>
		<rect x="144.144" y="74.004" fill="#FFFFFF" width="1.696" height="5.628"/>
		
			<rect x="159.461" y="83.126" transform="matrix(-0.7069 0.7073 -0.7073 -0.7069 336.3878 28.5635)" fill="#FFFFFF" width="5.631" height="1.696"/>
		<rect x="166.54" y="100.638" fill="#FFFFFF" width="5.629" height="1.695"/>
		<rect x="117.363" y="100.071" fill="#FFFFFF" width="5.628" height="1.695"/>
		
			<rect x="124.723" y="82.866" transform="matrix(0.7073 0.7069 -0.7069 0.7073 96.5137 -65.6559)" fill="#FFFFFF" width="5.629" height="1.697"/>
	</g>
	<g enable-background="new    ">
		<path fill="#005BAB" d="M291.96,74.221c-2.814-2.518-5.703-4.362-8.665-5.532c-2.962-1.17-6.132-1.755-9.509-1.755
			c-6.932,0-12.457,2.073-16.574,6.221c-4.118,4.147-6.176,9.716-6.176,16.707c0,6.842,1.911,12.271,5.732,16.284
			c3.821,4.015,9.035,6.021,15.641,6.021c3.762,0,7.257-0.629,10.486-1.888c3.229-1.259,6.221-3.147,8.976-5.665l-0.089,14.263
			c-2.962,1.748-6.065,3.052-9.309,3.91c-3.243,0.858-6.658,1.288-10.242,1.288c-10.368,0-18.877-3.221-25.527-9.664
			c-6.651-6.442-9.976-14.625-9.976-24.549c0-9.894,3.333-18.055,9.998-24.483c6.665-6.428,15.255-9.642,25.771-9.642
			c3.525,0,6.932,0.37,10.22,1.11c3.288,0.741,6.532,1.882,9.731,3.421L291.96,74.221z"/>
		<path fill="#005BAB" d="M299.172,122.342V53.47h12.619v68.872H299.172z"/>
		<path fill="#005BAB" d="M365.393,100.703c0,6.694-2.288,12.264-6.865,16.707c-4.576,4.443-10.375,6.664-17.396,6.664
			c-7.08,0-12.916-2.221-17.507-6.664c-4.592-4.443-6.887-10.013-6.887-16.707c0-6.666,2.311-12.234,6.932-16.707
			s10.442-6.71,17.462-6.71c7.05,0,12.856,2.207,17.418,6.62C363.111,88.321,365.393,93.92,365.393,100.703z M352.507,100.613
			c0-3.555-1.037-6.391-3.11-8.509c-2.074-2.117-4.858-3.177-8.354-3.177c-3.496,0-6.265,1.052-8.309,3.154
			c-2.044,2.104-3.066,4.948-3.066,8.531c0,3.555,1.022,6.398,3.066,8.531s4.813,3.199,8.309,3.199c3.466,0,6.243-1.066,8.331-3.199
			C351.463,107.012,352.507,104.168,352.507,100.613z"/>
		<path fill="#005BAB" d="M382.247,78.752v22.928c0,3.852,0.748,6.606,2.244,8.266c1.496,1.659,3.933,2.488,7.31,2.488
			c3.347,0,5.776-0.837,7.287-2.511s2.266-4.421,2.266-8.243V78.752h12.664v22.928c0,7.673-1.792,13.323-5.376,16.952
			c-3.584,3.629-9.139,5.442-16.663,5.442c-7.672,0-13.308-1.806-16.907-5.42c-3.599-3.614-5.398-9.271-5.398-16.975V78.752H382.247
			z"/>
		<path fill="#005BAB" d="M464.773,122.342H452.51l0.178-6.266c-1.718,2.756-3.784,4.777-6.198,6.065
			c-2.415,1.289-5.354,1.933-8.82,1.933c-5.776,0-10.435-2.146-13.974-6.442c-3.541-4.295-5.31-9.968-5.31-17.019
			c0-7.375,1.74-13.122,5.221-17.24c3.48-4.116,8.316-6.176,14.507-6.176c3.169,0,5.955,0.727,8.353,2.178
			c2.4,1.451,4.65,3.747,6.754,6.887c-0.148-1.066-0.26-2.244-0.333-3.532c-0.074-1.289-0.11-2.762-0.11-4.421V53.47h11.996V122.342
			z M453.221,100.48c0-3.91-0.984-7.005-2.954-9.287c-1.971-2.28-4.629-3.421-7.976-3.421c-3.437,0-6.14,1.118-8.109,3.354
			c-1.971,2.237-2.955,5.325-2.955,9.265c0,3.94,0.97,7.021,2.91,9.242c1.94,2.222,4.628,3.333,8.064,3.333
			c3.496,0,6.206-1.096,8.132-3.289C452.258,107.486,453.221,104.421,453.221,100.48z"/>
		<path fill="#005BAB" d="M486.561,122.342V92.66l-22.039-35.369h16.307l9.643,17.818c0.473,0.889,0.962,2.015,1.466,3.377
			c0.503,1.362,1.022,2.932,1.556,4.709c0.414-1.51,0.881-2.932,1.399-4.266c0.518-1.332,1.103-2.636,1.755-3.91l9.576-17.729
			h16.284L500.468,92.66v29.682H486.561z"/>
		<path fill="#005BAB" d="M524.965,78.752v22.928c0,3.852,0.747,6.606,2.243,8.266c1.495,1.659,3.933,2.488,7.31,2.488
			c3.348,0,5.776-0.837,7.287-2.511s2.266-4.421,2.266-8.243V78.752h12.664v22.928c0,7.673-1.793,13.323-5.377,16.952
			s-9.139,5.442-16.662,5.442c-7.672,0-13.308-1.806-16.907-5.42c-3.599-3.614-5.398-9.271-5.398-16.975V78.752H524.965z"/>
		<path fill="#005BAB" d="M607.402,121.631c0,4.591-0.273,7.82-0.821,9.687c-0.549,1.866-1.489,3.48-2.821,4.843
			c-1.896,2.045-4.326,3.555-7.287,4.533c-2.963,0.977-6.563,1.466-10.798,1.466c-7.08,0-12.456-1.126-16.13-3.377
			c-3.673-2.252-5.672-5.673-5.998-10.265h13.908c0.207,1.689,0.977,2.934,2.311,3.732c1.332,0.801,3.303,1.2,5.909,1.2
			c3.437,0,5.917-0.889,7.442-2.666s2.289-4.74,2.289-8.887v-6.221c-1.689,2.696-3.727,4.695-6.11,5.999
			c-2.385,1.303-5.206,1.955-8.464,1.955c-5.984,0-10.769-2.096-14.353-6.288c-3.585-4.191-5.376-9.842-5.376-16.951
			c0-7.228,1.747-12.886,5.242-16.974c3.496-4.088,8.324-6.132,14.486-6.132c3.169,0,5.99,0.733,8.464,2.199
			c2.474,1.467,4.54,3.622,6.198,6.466v-7.199h11.908V121.631z M595.939,100.48c0-3.851-0.979-6.887-2.934-9.109
			c-1.955-2.221-4.621-3.332-7.998-3.332c-3.465,0-6.176,1.104-8.131,3.311s-2.933,5.251-2.933,9.131
			c0,3.881,0.962,6.902,2.888,9.064c1.926,2.163,4.621,3.244,8.088,3.244c3.465,0,6.168-1.081,8.108-3.244
			C594.969,107.383,595.939,104.361,595.939,100.48z"/>
		<path fill="#005BAB" d="M658.471,122.342h-12.264l0.178-6.266c-1.719,2.756-3.784,4.777-6.198,6.065
			c-2.415,1.289-5.354,1.933-8.82,1.933c-5.776,0-10.435-2.146-13.975-6.442c-3.54-4.295-5.31-9.968-5.31-17.019
			c0-7.346,1.74-13.07,5.221-17.173s8.316-6.154,14.508-6.154c3.229,0,6.065,0.727,8.509,2.177c2.444,1.452,4.495,3.615,6.154,6.488
			v-7.199h11.997V122.342z M646.918,100.48c0-3.91-0.985-7.005-2.955-9.287c-1.97-2.28-4.629-3.421-7.976-3.421
			c-3.437,0-6.14,1.133-8.109,3.399c-1.97,2.266-2.954,5.369-2.954,9.309c0,3.94,0.969,7.006,2.91,9.197
			c1.939,2.193,4.628,3.289,8.064,3.289c3.495,0,6.205-1.096,8.132-3.289C645.955,107.486,646.918,104.421,646.918,100.48z"/>
		<path fill="#32449B" d="M665.372,116.076c0-2.133,0.747-3.954,2.243-5.465s3.295-2.266,5.399-2.266
			c2.103,0,3.902,0.755,5.398,2.266c1.495,1.511,2.244,3.332,2.244,5.465c0,2.104-0.741,3.889-2.223,5.354
			c-1.481,1.467-3.287,2.2-5.42,2.2c-2.104,0-3.903-0.741-5.399-2.223C666.119,119.928,665.372,118.15,665.372,116.076z"/>
		<path fill="#32449B" d="M731.725,121.631c0,4.591-0.274,7.82-0.822,9.687s-1.488,3.48-2.821,4.843
			c-1.896,2.045-4.325,3.555-7.287,4.533c-2.963,0.977-6.562,1.466-10.797,1.466c-7.081,0-12.457-1.126-16.13-3.377
			c-3.674-2.252-5.673-5.673-5.999-10.265h13.908c0.207,1.689,0.978,2.934,2.311,3.732c1.333,0.801,3.303,1.2,5.91,1.2
			c3.436,0,5.916-0.889,7.442-2.666c1.525-1.777,2.288-4.74,2.288-8.887v-6.221c-1.688,2.696-3.726,4.695-6.109,5.999
			c-2.385,1.303-5.207,1.955-8.465,1.955c-5.984,0-10.769-2.096-14.352-6.288c-3.585-4.191-5.377-9.842-5.377-16.951
			c0-7.228,1.747-12.886,5.243-16.974c3.495-4.088,8.323-6.132,14.485-6.132c3.169,0,5.991,0.733,8.465,2.199
			c2.473,1.467,4.539,3.622,6.198,6.466v-7.199h11.908V121.631z M720.261,100.48c0-3.851-0.978-6.887-2.933-9.109
			c-1.955-2.221-4.621-3.332-7.998-3.332c-3.466,0-6.177,1.104-8.132,3.311s-2.932,5.251-2.932,9.131
			c0,3.881,0.962,6.902,2.888,9.064c1.925,2.163,4.621,3.244,8.087,3.244s6.169-1.081,8.109-3.244
			C719.29,107.383,720.261,104.361,720.261,100.48z"/>
		<path fill="#32449B" d="M751.512,78.752v22.928c0,3.852,0.748,6.606,2.244,8.266c1.495,1.659,3.933,2.488,7.31,2.488
			c3.347,0,5.775-0.837,7.287-2.511c1.51-1.674,2.266-4.421,2.266-8.243V78.752h12.664v22.928c0,7.673-1.793,13.323-5.377,16.952
			c-3.585,3.629-9.139,5.442-16.662,5.442c-7.673,0-13.309-1.806-16.907-5.42c-3.6-3.614-5.399-9.271-5.399-16.975V78.752H751.512z"
			/>
		<path fill="#32449B" d="M802.58,89.949c1.273-4.235,3.103-7.404,5.487-9.508s5.339-3.155,8.865-3.155
			c0.799,0,2.117,0.148,3.954,0.444c0.355,0.06,0.622,0.104,0.8,0.133l-1.91,13.598c-0.949-0.385-1.904-0.674-2.866-0.867
			c-0.963-0.192-1.978-0.289-3.044-0.289c-3.852,0-6.621,0.985-8.309,2.955c-1.689,1.971-2.533,5.266-2.533,9.887v19.195H790.36
			v-43.59h12.486L802.58,89.949z"/>
		<path fill="#32449B" d="M834.72,78.752v22.928c0,3.852,0.748,6.606,2.244,8.266c1.495,1.659,3.932,2.488,7.309,2.488
			c3.348,0,5.777-0.837,7.287-2.511c1.512-1.674,2.267-4.421,2.267-8.243V78.752h12.663v22.928c0,7.673-1.792,13.323-5.376,16.952
			c-3.585,3.629-9.139,5.442-16.663,5.442c-7.672,0-13.308-1.806-16.906-5.42c-3.6-3.614-5.398-9.271-5.398-16.975V78.752H834.72z"
			/>
	</g>
</g>
</svg>
