<?xml version="1.0" encoding="utf-8"?>
<!-- Generator: Adobe Illustrator 16.0.0, SVG Export Plug-In . SVG Version: 6.00 Build 0)  -->
<!DOCTYPE svg PUBLIC "-//W3C//DTD SVG 1.1//EN" "http://www.w3.org/Graphics/SVG/1.1/DTD/svg11.dtd" [
	<!ENTITY ns_extend "http://ns.adobe.com/Extensibility/1.0/">
	<!ENTITY ns_ai "http://ns.adobe.com/AdobeIllustrator/10.0/">
	<!ENTITY ns_graphs "http://ns.adobe.com/Graphs/1.0/">
	<!ENTITY ns_vars "http://ns.adobe.com/Variables/1.0/">
	<!ENTITY ns_imrep "http://ns.adobe.com/ImageReplacement/1.0/">
	<!ENTITY ns_sfw "http://ns.adobe.com/SaveForWeb/1.0/">
	<!ENTITY ns_custom "http://ns.adobe.com/GenericCustomNamespace/1.0/">
	<!ENTITY ns_adobe_xpath "http://ns.adobe.com/XPath/1.0/">
]>
<svg version="1.1" id="Layer_1" xmlns:x="&ns_extend;" xmlns:i="&ns_ai;" xmlns:graph="&ns_graphs;"
	 xmlns="http://www.w3.org/2000/svg" xmlns:xlink="http://www.w3.org/1999/xlink" x="0px" y="0px" width="764px" height="149px"
	 viewBox="0 0 764 149" enable-background="new 0 0 764 149" xml:space="preserve">
<metadata>
	<sfw  xmlns="&ns_sfw;">
		<slices></slices>
		<sliceSourceBounds  y="187.574" x="-19.248" width="725.081" height="128.575" bottomLeftOrigin="true"></sliceSourceBounds>
		<optimizationSettings>
			<targetSettings  fileFormat="GIFFormat" targetSettingsID="0">
				
					<GIFFormat  transparency="true" lossy="0" matteColor="#FFFFFF" ditherPercent="88" autoReduce="false" ditherAlgorithm="diffusion" interlaced="false" webShiftPercent="0" noMatteColor="false" numColors="128" includeCaption="false" rolloverMasterPalette="false" reductionAlgorithm="selective">
					<colorTable  isExact="false"></colorTable>
					<lockedColors></lockedColors>
					<colorShiftEntries></colorShiftEntries>
				</GIFFormat>
			</targetSettings>
		</optimizationSettings>
	</sfw>
</metadata>
<g id="Background">
</g>
<g id="Guides">
</g>
<g id="Foreground">
	<g>
		<path fill="#0090D1" d="M73.966,97.354c3.258,0,6.22-2.061,6.22-6.219c0-17.302,10.884-32.064,26.181-37.811
			c-3.835-2.343-7.049-5.605-9.333-9.48C79.675,52.497,67.75,70.424,67.75,91.135C67.75,95.293,70.711,97.354,73.966,97.354z
			 M165.505,97.354c3.256,0,6.218-2.061,6.218-6.219c0-20.711-11.924-38.638-29.283-47.291c-2.284,3.875-5.497,7.138-9.333,9.48
			c15.297,5.746,26.181,20.509,26.181,37.811C159.287,95.293,162.249,97.354,165.505,97.354z M19.979,94.75
			c0-21.12,17.123-38.242,38.246-38.242c5.501,0,10.731,1.161,15.458,3.252c-1.355-3.926-2.093-8.143-2.093-12.531
			c0-21.196,17.185-38.378,38.384-38.378c3.698,0,7.274,0.522,10.659,1.499l-0.777-0.053h-0.241
			c-10.443,0.504-18.756,9.139-18.756,19.705c0,10.568,8.313,19.203,18.756,19.705h0.241c10.442-0.502,18.756-9.137,18.756-19.705
			c0-4.863-1.762-9.319-4.682-12.76c5.291,4.232,9.438,9.834,11.901,16.271c7.409-4.021,15.897-6.305,24.921-6.305
			c28.891,0,52.312,23.418,52.312,52.308c0,19.738-10.934,36.924-27.076,45.828c0.111-7.173-6.301-17.56-18.961-29.223
			c-1.305,3.238-3.854,5.436-6.772,6.563c9.422,11.543,8.099,19.892-4.693,19.892c-10.015,0-24.675-5.117-38.678-12.875
			c7.602-4.898,11.754-7.519,18.077-13.244c2.961-2.683-2.386-9.07-8.915-3.202c-4.603,4.135-10.7,8.471-16.311,12.038
			c-5.607-3.567-14.876-10.545-19.479-14.679c-6.529-5.868-11.876,0.521-8.915,3.201c6.325,5.726,13.646,10.986,21.247,15.886
			c-8.337,4.616-16.907,8.303-24.593,10.524c0,0-1.076,0.318-1.667,0.463c-4.578,1.22-8.801,1.888-12.417,1.888
			c-12.792,0-14.117-8.349-4.694-19.892c-2.917-1.127-5.47-3.324-6.771-6.563c-16.338,15.048-22.27,27.971-17.213,34.607
			C30.507,125.413,19.979,111.311,19.979,94.75z M142.947,125.992c-6.837,4.813-15.174,7.641-24.172,7.641
			c-8.681,0-16.747-2.632-23.444-7.139c8.048-3.352,16.348-7.506,24.404-12.23C127.396,118.756,135.272,122.73,142.947,125.992z"/>
		<g>
			<path fill="#005BAB" d="M120.604,115.605v14.772l-13.182-9c4-2.011,8-4.185,11.942-6.496L120.604,115.605z M73.314,60.385
				l-0.124-0.367l0.262,0.115c-0.543-1.568-0.985-3.184-1.323-4.837c0.86,0.671,1.694,1.368,2.499,2.089l3.188,2.854
				C71.26,69.035,67.38,79.943,67.38,91.758c0,0.984,0.168,1.854,0.462,2.604L30.375,68.78c6.952-7.183,16.696-11.647,27.483-11.647
				C63.359,57.133,68.586,58.294,73.314,60.385z M120.604,50.248v54.705l-1.103,0.706c-5.608-3.563-12.582-7.771-17.185-11.904
				c-6.53-5.866-10.426,1.912-7.464,4.593c6.324,5.726,9.899,6.825,17.5,11.719c-4.156,2.304-8.369,4.373-12.502,6.146
				L73.113,97.957l0.485,0.016c2.305,0,4.459-1.031,5.523-3.106c0.526-0.902,0.831-2.023,0.831-3.359
				c0-6.924,1.742-13.438,4.815-19.134c4.615-8.416,12.143-15.01,21.227-18.423l-0.201-0.124l0.338-0.129
				c-3.834-2.343-7.049-5.604-9.333-9.479c-4.524,2.254-8.68,5.14-12.348,8.539c4.085-6.941,9.699-13.091,16.454-18.071
				c1.807,8.642,9.268,15.212,18.337,15.649h0.242L120.604,50.248z"/>
			<path fill="#005BAB" d="M108.674,107.995l3.396,2.228c-3.061,1.689-6.153,3.25-9.219,4.658L108.674,107.995z M119.364,114.883
				c7.61,4.465,15.44,8.42,23.072,11.669c-6.786,4.696-15.019,7.448-23.897,7.448c-8.604,0-16.604-2.585-23.266-7.021
				C103.225,123.65,111.412,119.547,119.364,114.883z M158.724,87.855l-8.385,32.473c-3.75-1.129-7.697-2.598-11.712-4.342
				l-3.515-1.588c-2.819-1.324-5.653-2.775-8.465-4.332c7.603-4.895,10.209-6.154,16.533-11.879c2.96-2.682-0.841-10.432-7.37-4.563
				c-4.604,4.133-10.7,8.472-16.31,12.034c-1.634-1.035-3.575-2.363-5.621-3.823l32.905-38.922
				C153.397,69.389,157.789,78.117,158.724,87.855z M173.245,31.618l-8.702,33.7c-2.576-4.502-5.796-8.585-9.533-12.131
				L173.245,31.618z"/>
			<path fill="#32449B" d="M172.51,27.879l32.139,91.643c-2.736,2.355-5.717,4.436-8.898,6.189
				c0.11-7.172-6.303-17.559-18.962-29.221l-0.143,0.25l-0.081,0.189l-0.239,0.539l-4.84-5.964
				c0-20.711-11.925-38.636-29.284-47.289c-1.197,2.033-2.65,3.896-4.317,5.547l-4.748-5.895c1.069-1.179,1.995-2.488,2.757-3.901
				c1.582-2.84,2.483-6.11,2.483-9.591c0-3.168-0.746-6.163-2.074-8.816l1.164-0.092c3.436,3.625,6.172,7.921,7.991,12.672
				c7.407-4.02,15.896-6.305,24.919-6.305L172.51,27.879z"/>
			<path fill="#32449B" d="M55.492,57.206l-32.14,54.136c-2.312-4.926-3.6-10.423-3.6-16.222c0-6.472,1.605-12.567,4.442-17.909
				C30.306,65.907,41.948,58.031,55.492,57.206z"/>
			<path fill="#005BAB" d="M222.683,80.137c0,9.273-2.416,17.983-6.647,25.533c-2.231,3.93-4.956,7.545-8.091,10.755
				c1.841-21.79,4.072-46.999,5.74-65.626C219.363,59.165,222.683,69.266,222.683,80.137z"/>
		</g>
		<rect x="119.155" y="55.008" fill="#FFFFFF" width="2.233" height="7.41"/>
		
			<rect x="139.323" y="67.017" transform="matrix(-0.707 0.7072 -0.7072 -0.707 292.3334 15.1472)" fill="#FFFFFF" width="7.412" height="2.233"/>
		<rect x="148.643" y="90.074" fill="#FFFFFF" width="7.411" height="2.232"/>
		<rect x="83.894" y="89.329" fill="#FFFFFF" width="7.411" height="2.231"/>
		
			<rect x="93.585" y="66.675" transform="matrix(0.7072 0.707 -0.707 0.7072 76.4163 -48.9364)" fill="#FFFFFF" width="7.412" height="2.235"/>
	</g>
	<g enable-background="new    ">
		<path fill="#005BAB" d="M301.797,58.288c-3.278-2.933-6.643-5.08-10.093-6.444c-3.451-1.362-7.143-2.044-11.076-2.044
			c-8.074,0-14.51,2.416-19.306,7.246c-4.796,4.831-7.194,11.318-7.194,19.461c0,7.971,2.226,14.294,6.677,18.97
			s10.524,7.013,18.219,7.013c4.382,0,8.454-0.732,12.215-2.2c3.761-1.466,7.246-3.665,10.455-6.599l-0.104,16.614
			c-3.451,2.036-7.065,3.555-10.843,4.555s-7.755,1.501-11.93,1.501c-12.077,0-21.989-3.753-29.735-11.257
			c-7.747-7.506-11.62-17.037-11.62-28.597c0-11.524,3.882-21.03,11.646-28.519c7.764-7.487,17.77-11.231,30.02-11.231
			c4.106,0,8.074,0.432,11.904,1.294c3.83,0.863,7.608,2.191,11.335,3.985L301.797,58.288z"/>
		<path fill="#005BAB" d="M312.212,114.342V34.117h14.699v80.225H312.212z"/>
		<path fill="#005BAB" d="M391.361,89.136c0,7.799-2.666,14.285-7.997,19.461s-12.085,7.764-20.263,7.764
			c-8.247,0-15.044-2.588-20.393-7.764c-5.349-5.176-8.022-11.662-8.022-19.461c0-7.764,2.691-14.25,8.074-19.461
			c5.383-5.21,12.163-7.815,20.341-7.815c8.212,0,14.975,2.571,20.289,7.712C388.704,74.713,391.361,81.234,391.361,89.136z
			 M376.352,89.032c0-4.141-1.208-7.444-3.623-9.911c-2.416-2.467-5.659-3.701-9.73-3.701c-4.072,0-7.298,1.226-9.679,3.675
			c-2.381,2.45-3.571,5.763-3.571,9.938c0,4.141,1.19,7.453,3.571,9.938s5.607,3.727,9.679,3.727c4.037,0,7.272-1.242,9.705-3.727
			S376.352,93.173,376.352,89.032z"/>
		<path fill="#005BAB" d="M413.007,63.567v26.707c0,4.486,0.871,7.695,2.614,9.627c1.742,1.933,4.581,2.898,8.514,2.898
			c3.899,0,6.729-0.975,8.488-2.925c1.76-1.948,2.64-5.149,2.64-9.601V63.567h14.75v26.707c0,8.938-2.088,15.52-6.262,19.745
			c-4.176,4.228-10.646,6.341-19.41,6.341c-8.937,0-15.501-2.104-19.694-6.314c-4.192-4.209-6.289-10.8-6.289-19.771V63.567H413.007
			z"/>
		<path fill="#005BAB" d="M511.152,114.342h-14.285l0.207-7.298c-2.002,3.209-4.408,5.563-7.221,7.065
			c-2.813,1.5-6.236,2.251-10.273,2.251c-6.729,0-12.155-2.501-16.278-7.505c-4.124-5.003-6.185-11.61-6.185-19.823
			c0-8.592,2.026-15.285,6.081-20.082c4.054-4.796,9.687-7.194,16.899-7.194c3.691,0,6.936,0.846,9.73,2.536
			c2.795,1.691,5.416,4.365,7.867,8.022c-0.174-1.242-0.303-2.613-0.389-4.115c-0.086-1.5-0.129-3.217-0.129-5.149V34.117h13.975
			V114.342z M497.695,88.877c0-4.555-1.148-8.16-3.442-10.817c-2.295-2.656-5.392-3.985-9.29-3.985
			c-4.004,0-7.152,1.303-9.446,3.908c-2.295,2.605-3.442,6.202-3.442,10.791c0,4.59,1.131,8.178,3.391,10.766
			s5.391,3.882,9.395,3.882c4.07,0,7.229-1.276,9.471-3.83C496.573,97.038,497.695,93.467,497.695,88.877z"/>
		<path fill="#005BAB" d="M538.543,114.342V79.768l-25.672-41.199h18.996l11.23,20.755c0.553,1.035,1.121,2.347,1.709,3.934
			c0.586,1.588,1.189,3.416,1.811,5.486c0.483-1.76,1.027-3.416,1.631-4.969s1.285-3.07,2.045-4.555l11.154-20.651h18.969
			l-25.672,41.199v34.574H538.543z"/>
		<path fill="#005BAB" d="M585.292,63.567v26.707c0,4.486,0.871,7.695,2.614,9.627c1.742,1.933,4.58,2.898,8.514,2.898
			c3.898,0,6.729-0.975,8.488-2.925c1.76-1.948,2.64-5.149,2.64-9.601V63.567h14.751v26.707c0,8.938-2.088,15.52-6.263,19.745
			c-4.175,4.228-10.646,6.341-19.409,6.341c-8.938,0-15.502-2.104-19.693-6.314c-4.193-4.209-6.289-10.8-6.289-19.771V63.567
			H585.292z"/>
		<path fill="#005BAB" d="M683.333,113.514c0,5.348-0.319,9.109-0.957,11.283c-0.64,2.174-1.734,4.054-3.287,5.642
			c-2.209,2.381-5.038,4.141-8.488,5.279c-3.451,1.139-7.644,1.708-12.577,1.708c-8.247,0-14.51-1.312-18.788-3.934
			c-4.279-2.623-6.608-6.608-6.987-11.956h16.2c0.241,1.967,1.139,3.416,2.691,4.348s3.847,1.397,6.884,1.397
			c4.002,0,6.892-1.035,8.669-3.105s2.666-5.521,2.666-10.352v-7.246c-1.967,3.141-4.34,5.47-7.117,6.987s-6.064,2.277-9.859,2.277
			c-6.971,0-12.543-2.44-16.718-7.323c-4.176-4.883-6.263-11.465-6.263-19.746c0-8.419,2.036-15.01,6.107-19.771
			s9.695-7.143,16.873-7.143c3.691,0,6.979,0.854,9.859,2.563c2.881,1.707,5.288,4.218,7.221,7.53v-8.385h13.871V113.514z
			 M669.979,88.877c0-4.485-1.139-8.022-3.416-10.61s-5.383-3.882-9.316-3.882c-4.037,0-7.194,1.286-9.472,3.855
			c-2.277,2.571-3.416,6.117-3.416,10.637c0,4.521,1.121,8.04,3.364,10.559c2.242,2.52,5.383,3.778,9.42,3.778
			s7.186-1.259,9.445-3.778C668.849,96.917,669.979,93.397,669.979,88.877z"/>
		<path fill="#005BAB" d="M744.833,114.342h-14.285l0.207-7.298c-2.002,3.209-4.408,5.563-7.221,7.065
			c-2.813,1.5-6.236,2.251-10.273,2.251c-6.729,0-12.155-2.501-16.277-7.505c-4.124-5.003-6.186-11.61-6.186-19.823
			c0-8.557,2.026-15.225,6.082-20.005c4.054-4.778,9.687-7.168,16.898-7.168c3.761,0,7.064,0.846,9.912,2.536
			c2.846,1.691,5.235,4.21,7.168,7.557v-8.385h13.975V114.342z M731.376,88.877c0-4.555-1.147-8.16-3.441-10.817
			c-2.296-2.656-5.393-3.985-9.291-3.985c-4.003,0-7.151,1.32-9.445,3.959c-2.296,2.641-3.442,6.255-3.442,10.844
			c0,4.59,1.13,8.161,3.39,10.714c2.26,2.554,5.392,3.83,9.395,3.83c4.071,0,7.229-1.276,9.472-3.83
			C730.254,97.038,731.376,93.467,731.376,88.877z"/>
	</g>
</g>
</svg>
