<svg xmlns="http://www.w3.org/2000/svg" viewBox="0 0 690 146"><style>.a{fill:#00A651;}.b{fill:#005BAB;}.c{fill:#32449B;}.d{fill:#FFF;}</style><symbol viewBox="-43.3 -24.3 86.6 48.6"><path d="M-33.9-3.5c8.3 8.9 13.2 21.6 13.2 21.6C-24.1 7.5-28.2 2.3-34.9-6.2L-33.9-3.5z" class="a"/><path d="M-30.5 3.2c0.3 2.3 2.4 11.4 2.4 11.4l-2.2-5.6c-0.5-2.9 0.8-5.6 0.4-8L-30.5 3.2z" class="a"/><path d="M-27.7 8.6c0.3 2.3 1.7 9.8 1.7 9.8l-0.5-3.8c0-2.4-0.2-5.7-0.5-8.1L-27.7 8.6z" class="a"/><path d="M-24.2 13.4c0.2 1.4 3.1 6.6 3.1 6.6l-2.2-2.9c0-1.5-0.2-3.5-0.4-5L-24.2 13.4z" class="a"/><path d="M-21.2 18.1c0.6 1.2 2.8 6.2 2.8 6.2l-1.3-3.5c-0.3-1.3-1-3-1.6-4.3L-21.2 18.1z" class="a"/><path d="M-26 10.3c0.3 2.3 1.7 9.8 1.7 9.8l-1.2-4.8c0-2.4 0.4-4.7 0.1-7.1L-26 10.3z" class="a"/><path d="M-24.5 3.5c1.4 0.9 6.5 3.4 6.5 3.4l-3.3-2.2c-1.8-1.2-5.3-0.6-6.8-1.5L-24.5 3.5z" class="a"/><path d="M-21.9 6.9c1.9 1.3 6.1 5.1 6.1 5.1l-3.2-2.1c-2.2-1.1-5.1-2.7-7.1-4L-21.9 6.9z" class="a"/><path d="M-21.8 13.1c1 0.9 3.9 6.2 3.9 6.2l-1.3-3.4c-1.2-0.8-2.8-2-3.9-3L-21.8 13.1z" class="a"/><path d="M-23.3 9.5c1.6 1 6 5.9 6 5.9l-2.6-3.9c-1.8-0.9-3.5-1.2-5.1-2.2L-23.3 9.5z" class="a"/><path d="M-33 0.4c0.3 2.3 1.6 12.7 1.6 12.7l-1.4-6.9c-0.5-2.9 0.8-5.6 0.4-8L-33 0.4z" class="a"/><path d="M-35-1.3c0.3 2.3 1.6 12.7 1.6 12.7l-1.4-6.9c-0.5-2.9 0.8-5.6 0.4-8L-35-1.3z" class="a"/><path d="M-29.4-0.6c1.5 0.6 10.2 4.3 10.2 4.3l-4.8-3.1c-1.9-0.8-5.4-0.5-7-1.1L-29.4-0.6z" class="a"/><path d="M-30-3.3c1.7 0.7 9.7 4.1 9.7 4.1l-5.1-2.7c-2.2-1-4.6-0.3-6.4-1.1L-30-3.3z" class="a"/><path d="M-41.1-9.8c17.3-2.8 35.8-10.6 35.8-10.6C-18.8-13.8-28.1-11.7-43.3-8.3L-41.1-9.8z" class="a"/><path d="M-29.9-13.6c2.4-1.7 13.1-8 13.1-8l-7.5 3.4c-3.2 2.1-4.2 4.9-6.8 6.7L-29.9-13.6z" class="a"/><path d="M-21.8-16.4c2.4-1.7 10.9-7 10.9-7l-4.1 2.8c-2.2 2-5.5 4.5-8 6.3L-21.8-16.4z" class="a"/><path d="M-13.5-18.5c1.5-1 9.4-3.7 9.4-3.7l-5.1 1.2c-1.4 1.2-3.4 2.8-5 3.8L-13.5-18.5z" class="a"/><path d="M-5.9-20.7c1.7-0.6 8.8-3.6 8.8-3.6l-4.6 2.2c-1.5 0.9-3.8 1.9-5.7 2.6L-5.9-20.7z" class="a"/><path d="M-18.4-17c2.4-1.7 10.9-7 10.9-7l-5.7 3.3c-2.2 2-3.8 4-6.4 5.8L-18.4-17z" class="a"/><path d="M-22.9-10.7c2.4 0 10.3 0.7 10.3 0.7l-5.7 0c-3 0-6.5-2.3-9-2.3L-22.9-10.7z" class="a"/><path d="M-16.9-12c3.3 0 11.4-0.9 11.4-0.9l-5.5 0.1c-3.4-0.3-8.1-0.5-11.5-0.4L-16.9-12z" class="a"/><path d="M-11.2-17c2-0.2 9.9-3 9.9-3L-5.8-17.9c-2.1 0-5 0.2-7.1 0.4L-11.2-17z" class="a"/><path d="M-16.1-14.9c2.7 0 12-1.6 12-1.6l-6.5 1.8c-2.8-0.3-4.9-0.9-7.7-0.9L-16.1-14.9z" class="a"/><path d="M-35.2-12.6c2.4-1.7 13.4-9.5 13.4-9.5l-7.8 4.8c-3.2 2.1-4.2 4.9-6.8 6.7L-35.2-12.6z" class="a"/><path d="M-38.9-12.3c2.4-1.7 13.4-9.5 13.4-9.5l-7.8 4.8c-3.2 2.1-4.2 4.9-6.8 6.7L-38.9-12.3z" class="a"/><path d="M-32-10c2.3 0.3 15.2 1.9 15.2 1.9l-8.2 0c-2.9-0.3-6.4-2.5-8.8-2.8L-32-10z" class="a"/><path d="M-35.2-8C-32.6-7.7-20.7-6.2-20.7-6.2l-8.2-0.5c-3.4-0.3-5.4-2.2-8.1-2.5L-35.2-8z" class="a"/><path d="M-20-4.8c13.5-2 27.7-7.1 27.7-7.1 -10.5 4.7-17.7 6.2-29.6 8.5L-20-4.8z" class="a"/><path d="M-11.4-7c1.9-1.2 10.2-5.6 10.2-5.6l-5.8 2.4C-9.5-8.8-10.3-6.8-12.3-5.6L-11.4-7z" class="a"/><path d="M-5.1-9c1.9-1.2 8.5-5 8.5-5l-3.2 2c-1.7 1.4-4.3 3.2-6.3 4.4L-5.1-9z" class="a"/><path d="M1.3-10.5c1.2-0.7 7.3-2.6 7.3-2.6l-4 0.9c-1.1 0.8-2.6 1.9-3.9 2.7L1.3-10.5z" class="a"/><path d="M7.3-12.1c1.4-0.4 6.8-2.5 6.8-2.5L10.5-13.1c-1.2 0.6-3 1.4-4.4 1.8L7.3-12.1z" class="a"/><path d="M-2.5-9.5c1.9-1.2 8.5-5 8.5-5l-4.4 2.3c-1.7 1.4-3 2.8-5 4.1L-2.5-9.5z" class="a"/><path d="M-6-5c1.8 0 8 0.5 8 0.5l-4.5 0c-2.4 0-5-1.6-7-1.7L-6-5z" class="a"/><path d="M-1.3-5.9c2.5 0 8.9-0.6 8.9-0.6L3.4-6.5c-2.7-0.2-6.3-0.3-9-0.3L-1.3-5.9z" class="a"/><path d="M3.2-9.5c1.6-0.1 7.7-2.1 7.7-2.1L7.4-10.1c-1.7 0-3.9 0.1-5.6 0.3L3.2-9.5z" class="a"/><path d="M-0.7-7.9c2.1 0 9.3-1.1 9.3-1.1L3.6-7.8C1.4-8-0.2-8.5-2.4-8.5L-0.7-7.9z" class="a"/><path d="M-15.5-6.3c1.9-1.2 10.5-6.7 10.5-6.7l-6.1 3.4c-2.5 1.5-3.3 3.4-5.3 4.7L-15.5-6.3z" class="a"/><path d="M-18.4-6.2c1.9-1.2 10.5-6.7 10.5-6.7l-6.1 3.4c-2.5 1.5-3.3 3.4-5.3 4.7L-18.4-6.2z" class="a"/><path d="M-13.1-4.5c1.8 0.2 11.9 1.3 11.9 1.3l-6.4 0c-2.3-0.2-5-1.7-6.8-2L-13.1-4.5z" class="a"/><path d="M-15.6-3.1c2 0.2 11.3 1.3 11.3 1.3l-6.4-0.3c-2.6-0.2-4.2-1.5-6.3-1.8L-15.6-3.1z" class="a"/><path d="M1.7-2.1c12.2-1.7 25.1-6.1 25.1-6.1C17.3-4.1 10.7-2.8 0-0.8L1.7-2.1z" class="a"/><path d="M9.5-4c1.7-1 9.2-4.8 9.2-4.8l-5.3 2.1c-2.2 1.3-3 3-4.8 4L9.5-4z" class="a"/><path d="M15.2-5.7c1.7-1 7.7-4.3 7.7-4.3l-2.9 1.7c-1.6 1.2-3.9 2.7-5.7 3.8L15.2-5.7z" class="a"/><path d="M21-7c1.1-0.6 6.7-2.3 6.7-2.3L24-8.5c-1 0.7-2.4 1.7-3.5 2.3L21-7z" class="a"/><path d="M26.4-8.3c1.2-0.4 6.2-2.2 6.2-2.2l-3.3 1.3c-1.1 0.5-2.7 1.2-4 1.6L26.4-8.3z" class="a"/><path d="M17.6-6.1c1.7-1 7.7-4.3 7.7-4.3l-4 2c-1.6 1.2-2.7 2.4-4.5 3.5L17.6-6.1z" class="a"/><path d="M14.3-2.2c1.7 0 7.3 0.4 7.3 0.4L17.6-1.8C15.4-1.8 13-3.2 11.2-3.2L14.3-2.2z" class="a"/><path d="M18.6-3c2.3 0 8.1-0.5 8.1-0.5l-3.9 0c-2.4-0.2-5.7-0.3-8.1-0.3L18.6-3z" class="a"/><path d="M22.6-6.1c1.4-0.1 7-1.8 7-1.8l-3.2 1.3c-1.5 0-3.5 0.1-5 0.2L22.6-6.1z" class="a"/><path d="M19.2-4.8c1.9 0 8.4-1 8.4-1l-4.6 1.1c-2-0.2-3.5-0.5-5.5-0.5L19.2-4.8z" class="a"/><path d="M5.7-3.4c1.7-1 9.5-5.7 9.5-5.7l-5.5 2.9c-2.2 1.3-3 3-4.8 4L5.7-3.4z" class="a"/><path d="M3.1-3.2c1.7-1 9.5-5.7 9.5-5.7l-5.5 2.9c-2.2 1.3-3 3-4.8 4L3.1-3.2z" class="a"/><path d="M7.9-1.8c1.6 0.2 10.7 1.1 10.7 1.1L12.9-0.7c-2.1-0.2-4.5-1.5-6.2-1.7L7.9-1.8z" class="a"/><path d="M5.7-0.6C7.5-0.4 16 0.5 16 0.5l-5.8-0.3C7.8 0 6.4-1.2 4.4-1.4L5.7-0.6z" class="a"/><path d="M14 2.8c11.1-1.5 22.7-5.2 22.7-5.2C28.1 1.1 22.2 2.2 12.5 3.9L14 2.8z" class="a"/><path d="M21.1 1.2c1.5-0.9 8.4-4.2 8.4-4.2l-4.8 1.8c-2 1.1-2.7 2.6-4.3 3.5L21.1 1.2z" class="a"/><path d="M26.2-0.3c1.5-0.9 7-3.7 7-3.7l-2.6 1.5c-1.4 1-3.5 2.4-5.1 3.3L26.2-0.3z" class="a"/><path d="M31.5-1.4c1-0.5 6-2 6-2l-3.3 0.6c-0.9 0.6-2.2 1.4-3.2 2L31.5-1.4z" class="a"/><path d="M36.4-2.5c1.1-0.3 5.6-1.9 5.6-1.9l-3 1.1c-1 0.5-2.4 1-3.6 1.4L36.4-2.5z" class="a"/><path d="M28.4-0.6c1.5-0.9 7-3.7 7-3.7l-3.6 1.7c-1.4 1-2.4 2.1-4.1 3L28.4-0.6z" class="a"/><path d="M25.5 2.7c1.5 0 6.6 0.4 6.6 0.4l-3.7 0c-1.9 0-4.1-1.2-5.7-1.2L25.5 2.7z" class="a"/><path d="M29.4 2c2.1 0 7.3-0.5 7.3-0.5l-3.5 0c-2.2-0.1-5.2-0.2-7.4-0.2L29.4 2z" class="a"/><path d="M33-0.6c1.3-0.1 6.3-1.5 6.3-1.5l-2.9 1.1c-1.4 0-3.2 0.1-4.6 0.2L33-0.6z" class="a"/><path d="M29.9 0.5c1.7 0 7.6-0.8 7.6-0.8l-4.1 0.9c-1.8-0.1-3.1-0.5-4.9-0.5L29.9 0.5z" class="a"/><path d="M17.7 1.7c1.5-0.9 8.6-4.9 8.6-4.9l-5 2.5c-2 1.1-2.7 2.6-4.3 3.5L17.7 1.7z" class="a"/><path d="M15.3 1.8c1.5-0.9 8.6-4.9 8.6-4.9l-5 2.5c-2 1.1-2.7 2.6-4.3 3.5L15.3 1.8z" class="a"/><path d="M19.7 3.1c1.5 0.2 9.7 1 9.7 1l-5.2 0c-1.9-0.2-4.1-1.3-5.6-1.5L19.7 3.1z" class="a"/><path d="M17.7 4.1c1.7 0.2 9.3 0.9 9.3 0.9l-5.2-0.2C19.6 4.6 18.3 3.6 16.5 3.4L17.7 4.1z" class="a"/><path d="M-16.8 0.1C-9.2 6.4-2.9 16.1-2.9 16.1 -7 8-10.9 4.2-17.2-2L-16.8 0.1z" class="a"/><path d="M-12.5 5.1c0.5 1.8 3.3 9.1 3.3 9.1l-2.4-4.3c-0.7-2.3-0.1-4.6-0.7-6.6L-12.5 5.1z" class="a"/><path d="M-9.6 9.2c0.5 1.8 2.6 7.8 2.6 7.8l-0.9-3c-0.3-2-0.9-4.7-1.5-6.6L-9.6 9.2z" class="a"/><path d="M-6.3 12.7c0.3 1.1 3.2 5 3.2 5l-2.1-2.1c-0.2-1.2-0.6-2.9-0.9-4L-6.3 12.7z" class="a"/><path d="M-3.3 16.2c0.6 0.9 3 4.8 3 4.8l-1.5-2.7c-0.4-1-1.1-2.4-1.8-3.3L-3.3 16.2z" class="a"/><path d="M-8.1 10.5c0.5 1.8 2.6 7.8 2.6 7.8l-1.5-3.8c-0.3-2-0.3-3.9-0.8-5.8L-8.1 10.5z" class="a"/><path d="M-7.8 4.7C-6.6 5.2-2.3 6.7-2.3 6.7l-2.9-1.4c-1.5-0.7-4.2 0.1-5.5-0.4L-7.8 4.7z" class="a"/><path d="M-5.3 7.1c1.6 0.8 5.4 3.4 5.4 3.4l-2.7-1.4C-4.5 8.6-6.9 7.6-8.6 6.7L-5.3 7.1z" class="a"/><path d="M-4.5 12.2c0.9 0.6 3.8 4.6 3.8 4.6l-1.4-2.7c-1.1-0.5-2.5-1.3-3.5-2L-4.5 12.2z" class="a"/><path d="M-6.1 9.4c1.4 0.6 5.4 4.1 5.4 4.1l-2.6-2.9c-1.5-0.5-2.9-0.5-4.3-1.2L-6.1 9.4z" class="a"/><path d="M-14.8 3.2c0.5 1.8 2.9 10.2 2.9 10.2l-2-5.5c-0.7-2.3-0.1-4.6-0.7-6.6L-14.8 3.2z" class="a"/><path d="M-16.6 2.1c0.5 1.8 2.9 10.2 2.9 10.2l-2-5.5c-0.7-2.3-0.1-4.6-0.7-6.6L-16.6 2.1z" class="a"/><path d="M-12.2 2c1.3 0.3 8.5 2.3 8.5 2.3l-4.2-2c-1.6-0.4-4.2 0.3-5.6 0L-12.2 2z" class="a"/><path d="M-13-0.2c1.4 0.4 8.1 2.2 8.1 2.2l-4.3-1.6c-1.8-0.6-3.6 0.3-5.2-0.1L-13-0.2z" class="a"/><path d="M-1.7 1.4c5 5.2 8.9 13 8.9 13C4.7 7.9 2.3 4.8-1.9-0.2L-1.7 1.4z" class="a"/><path d="M1 5.4c0.3 1.4 1.8 7.1 1.8 7.1l-1.4-3.4C1 7.3 1.6 5.6 1.3 4.1L1 5.4z" class="a"/><path d="M2.8 8.7c0.3 1.4 1.3 6.1 1.3 6.1l-0.4-2.4C3.6 10.9 3.4 8.9 3.1 7.4L2.8 8.7z" class="a"/><path d="M4.9 11.6c0.2 0.9 2 4 2 4l-1.3-1.8c-0.1-0.9-0.2-2.2-0.4-3.1L4.9 11.6z" class="a"/><path d="M6.8 14.4c0.4 0.7 1.8 3.8 1.8 3.8l-0.9-2.2c-0.2-0.8-0.7-1.9-1.1-2.6L6.8 14.4z" class="a"/><path d="M3.8 9.8c0.3 1.4 1.3 6.1 1.3 6.1L4.3 12.9c-0.1-1.5 0.1-3-0.2-4.5L3.8 9.8z" class="a"/><path d="M4.4 5.4c0.8 0.5 3.8 1.8 3.8 1.8L6.2 6C5.2 5.3 3.2 5.8 2.3 5.3L4.4 5.4z" class="a"/><path d="M6 7.4c1.1 0.7 3.6 2.9 3.6 2.9L7.8 9.1C6.5 8.5 4.8 7.6 3.7 6.9L6 7.4z" class="a"/><path d="M6.3 11.3c0.6 0.5 2.4 3.7 2.4 3.7L7.8 12.9c-0.7-0.5-1.7-1.2-2.3-1.7L6.3 11.3z" class="a"/><path d="M5.3 9.1c0.9 0.6 3.6 3.4 3.6 3.4l-1.6-2.3c-1.1-0.5-2-0.6-3-1.2L5.3 9.1z" class="a"/><path d="M-0.5 3.8c0.3 1.4 1.4 8 1.4 8l-1-4.3c-0.4-1.8 0.2-3.5-0.1-5L-0.5 3.8z" class="a"/><path d="M-1.7 2.9c0.3 1.4 1.4 8 1.4 8l-1-4.3c-0.4-1.8 0.2-3.5-0.1-5L-1.7 2.9z" class="a"/><path d="M1.5 3c0.9 0.3 5.9 2.2 5.9 2.2L4.5 3.5c-1.1-0.4-3 0-4-0.4L1.5 3z" class="a"/><path d="M1 1.3C2 1.7 6.7 3.5 6.7 3.5L3.7 2c-1.3-0.6-2.6 0-3.7-0.4L1 1.3z" class="a"/><path d="M10.4 4.1c5.3 4.5 9.1 10.9 9.1 10.9 -2.2-5.3-4.9-8-9.2-12.2L10.4 4.1z" class="a"/><path d="M13.2 7.5c0.2 1.1 1.5 5.8 1.5 5.8l-1.4-2.8c-0.3-1.5 0.5-2.8 0.3-4L13.2 7.5z" class="a"/><path d="M15 10.3c0.2 1.1 1.1 5 1.1 5l-0.3-1.9c0-1.2-0.1-2.9-0.3-4.1L15 10.3z" class="a"/><path d="M17.3 12.7c0.1 0.7 2 3.3 2 3.3l-1.4-1.5c0-0.8-0.1-1.8-0.2-2.5L17.3 12.7z" class="a"/><path d="M19.2 15.1c0.4 0.6 1.8 3.2 1.8 3.2l-0.8-1.8c-0.2-0.7-0.6-1.5-1-2.2L19.2 15.1z" class="a"/><path d="M16.1 11.2c0.2 1.1 1.1 5 1.1 5l-0.7-2.4c0-1.2 0.3-2.4 0.1-3.6L16.1 11.2z" class="a"/><path d="M17 7.7c0.9 0.4 4.2 1.7 4.2 1.7l-2.1-1.1c-1.1-0.6-3.4-0.3-4.4-0.8L17 7.7z" class="a"/><path d="M18.8 9.4c1.2 0.6 3.9 2.6 3.9 2.6l-2-1.1c-1.4-0.5-3.2-1.4-4.5-2L18.8 9.4z" class="a"/><path d="M18.8 12.6c0.7 0.5 2.5 3.1 2.5 3.1l-0.8-1.7c-0.8-0.4-1.8-1-2.5-1.5L18.8 12.6z" class="a"/><path d="M17.8 10.7c1 0.5 3.8 3 3.8 3l-1.7-2c-1.2-0.4-2.2-0.6-3.3-1.1L17.8 10.7z" class="a"/><path d="M11.6 6.1c0.2 1.1 1 6.4 1 6.4l-0.9-3.5c-0.3-1.5 0.5-2.8 0.3-4L11.6 6.1z" class="a"/><path d="M10.3 5.3c0.2 1.1 1 6.4 1 6.4l-0.9-3.5c-0.3-1.5 0.5-2.8 0.3-4L10.3 5.3z" class="a"/><path d="M13.9 5.7c1 0.3 6.5 2.2 6.5 2.2l-3.1-1.6c-1.3-0.4-3.4-0.2-4.5-0.6L13.9 5.7z" class="a"/><path d="M13.5 4.3c1.1 0.4 6.2 2.1 6.2 2.1L16.5 5c-1.4-0.5-3-0.1-4.1-0.5L13.5 4.3z" class="a"/><path d="M22.4 7.2c9.3 2 17.5 6.5 17.5 6.5C34.3 9.7 29.5 8.3 21.7 6L22.4 7.2z" class="a"/><path d="M27.8 9.3c0.8 1 4.9 4.8 4.9 4.8l-3.2-2.1c-1.1-1.2-0.7-2.8-1.6-3.9L27.8 9.3z" class="a"/><path d="M31.5 11.1c0.8 1 3.9 4.2 3.9 4.2l-1.4-1.7c-0.6-1.2-1.6-2.7-2.5-3.7L31.5 11.1z" class="a"/><path d="M35.7 12.5c0.5 0.6 4.2 2.3 4.2 2.3l-2.6-0.8c-0.4-0.7-1-1.6-1.6-2.3L35.7 12.5z" class="a"/><path d="M39.4 13.9c0.8 0.4 3.9 2.2 3.9 2.2l-2-1.3c-0.6-0.5-1.6-1.2-2.4-1.6L39.4 13.9z" class="a"/><path d="M33.3 11.5c0.8 1 3.9 4.2 3.9 4.2l-2.2-2c-0.6-1.2-0.8-2.3-1.7-3.4L33.3 11.5z" class="a"/><path d="M32.9 7.9c1.4 0 6.4-0.1 6.4-0.1l-3.4-0.2c-1.8-0.1-4.7 1.1-6.2 1.1L32.9 7.9z" class="a"/><path d="M36 8.8c1.9 0.1 6.5 0.8 6.5 0.8l-3.2-0.2c-2.1 0.1-5 0-7-0.1L36 8.8z" class="a"/><path d="M37.6 11.7c1.1 0.2 4.8 1.9 4.8 1.9l-1.9-1.3c-1.3-0.1-2.9-0.2-4.1-0.4L37.6 11.7z" class="a"/><path d="M35.5 10.4c1.6 0.1 6.5 1.2 6.5 1.2l-3.2-1.1c-1.8 0.1-3.2 0.4-4.9 0.3L35.5 10.4z" class="a"/><path d="M25 8.6c0.8 1 4.5 5.6 4.5 5.6l-2.9-2.9c-1.1-1.2-0.7-2.8-1.6-3.9L25 8.6z" class="a"/><path d="M22.9 8.3c0.8 1 4.5 5.6 4.5 5.6l-2.9-2.9c-1.1-1.2-0.7-2.8-1.6-3.9L22.9 8.3z" class="a"/><path d="M27.8 7.2c1.5-0.1 9.7-0.6 9.7-0.6l-4.9-0.2c-1.9 0.1-4.7 1.2-6.2 1.3L27.8 7.2z" class="a"/><path d="M26.6 6.1c1.6-0.1 9.3-0.6 9.3-0.6L30.8 5.5c-2.1 0.1-4 1.1-5.7 1.2L26.6 6.1z" class="a"/></symbol><path d="M69.7 100.2c3.3 0 6.2-2.1 6.2-6.2 0-17.3 10.9-32.1 26.2-37.8 -3.8-2.3-7-5.6-9.3-9.5 -17.4 8.7-29.3 26.6-29.3 47.3C63.5 98.1 66.4 100.2 69.7 100.2zM161.2 100.2c3.3 0 6.2-2.1 6.2-6.2 0-20.7-11.9-38.6-29.3-47.3 -2.3 3.9-5.5 7.1-9.3 9.5 15.3 5.7 26.2 20.5 26.2 37.8C155 98.1 158 100.2 161.2 100.2zM15.7 97.6c0-21.1 17.1-38.2 38.2-38.2 5.5 0 10.7 1.2 15.5 3.3 -1.4-3.9-2.1-8.1-2.1-12.5 0-21.2 17.2-38.4 38.4-38.4 3.7 0 7.3 0.5 10.7 1.5l-0.8-0.1h-0.2c-10.4 0.5-18.8 9.1-18.8 19.7 0 10.6 8.3 19.2 18.8 19.7h0.2c10.4-0.5 18.8-9.1 18.8-19.7 0-4.9-1.8-9.3-4.7-12.8 5.3 4.2 9.4 9.8 11.9 16.3 7.4-4 15.9-6.3 24.9-6.3 28.9 0 52.3 23.4 52.3 52.3 0 19.7-10.9 36.9-27.1 45.8 0.1-7.2-6.3-17.6-19-29.2 -1.3 3.2-3.9 5.4-6.8 6.6 9.4 11.5 8.1 19.9-4.7 19.9 -10 0-24.7-5.1-38.7-12.9 7.6-4.9 11.8-7.5 18.1-13.2 3-2.7-2.4-9.1-8.9-3.2 -4.6 4.1-10.7 8.5-16.3 12 -5.6-3.6-14.9-10.5-19.5-14.7 -6.5-5.9-11.9 0.5-8.9 3.2 6.3 5.7 13.6 11 21.2 15.9 -8.3 4.6-16.9 8.3-24.6 10.5 0 0-1.1 0.3-1.7 0.5 -4.6 1.2-8.8 1.9-12.4 1.9 -12.8 0-14.1-8.3-4.7-19.9 -2.9-1.1-5.5-3.3-6.8-6.6C41.8 114 35.9 126.9 40.9 133.6 26.2 128.2 15.7 114.1 15.7 97.6zM138.7 128.8c-6.8 4.8-15.2 7.6-24.2 7.6 -8.7 0-16.7-2.6-23.4-7.1 8-3.4 16.3-7.5 24.4-12.2C123.1 121.6 131 125.6 138.7 128.8z" fill="#0090D1"/><path d="M116.3 118.4v14.8l-13.2-9c4-2 8-4.2 11.9-6.5L116.3 118.4zM69 63.2l-0.1-0.4 0.3 0.1c-0.5-1.6-1-3.2-1.3-4.8 0.9 0.7 1.7 1.4 2.5 2.1l3.2 2.9c-6.6 8.8-10.4 19.7-10.4 31.5 0 1 0.2 1.9 0.5 2.6l-37.5-25.6c7-7.2 16.7-11.6 27.5-11.6C59.1 60 64.3 61.1 69 63.2zM116.3 53.1v54.7l-1.1 0.7c-5.6-3.6-12.6-7.8-17.2-11.9 -6.5-5.9-10.4 1.9-7.5 4.6 6.3 5.7 9.9 6.8 17.5 11.7 -4.2 2.3-8.4 4.4-12.5 6.1l-26.7-18.3 0.5 0c2.3 0 4.5-1 5.5-3.1 0.5-0.9 0.8-2 0.8-3.4 0-6.9 1.7-13.4 4.8-19.1 4.6-8.4 12.1-15 21.2-18.4l-0.2-0.1 0.3-0.1c-3.8-2.3-7-5.6-9.3-9.5 -4.5 2.3-8.7 5.1-12.3 8.5 4.1-6.9 9.7-13.1 16.5-18.1 1.8 8.6 9.3 15.2 18.3 15.6h0.2L116.3 53.1z" class="b"/><path d="M104.4 110.8l3.4 2.2c-3.1 1.7-6.2 3.3-9.2 4.7L104.4 110.8zM115.1 117.7c7.6 4.5 15.4 8.4 23.1 11.7 -6.8 4.7-15 7.4-23.9 7.4 -8.6 0-16.6-2.6-23.3-7C98.9 126.5 107.1 122.4 115.1 117.7zM154.4 90.7l-8.4 32.5c-3.7-1.1-7.7-2.6-11.7-4.3l-3.5-1.6c-2.8-1.3-5.7-2.8-8.5-4.3 7.6-4.9 10.2-6.2 16.5-11.9 3-2.7-0.8-10.4-7.4-4.6 -4.6 4.1-10.7 8.5-16.3 12 -1.6-1-3.6-2.4-5.6-3.8l32.9-38.9C149.1 72.2 153.5 80.9 154.4 90.7zM169 34.4l-8.7 33.7c-2.6-4.5-5.8-8.6-9.5-12.1L169 34.4z" class="b"/><path d="M168.2 30.7l32.1 91.6c-2.7 2.4-5.7 4.4-8.9 6.2 0.1-7.2-6.3-17.6-19-29.2l-0.1 0.3 -0.1 0.2 -0.2 0.5 -4.8-6c0-20.7-11.9-38.6-29.3-47.3 -1.2 2-2.6 3.9-4.3 5.5L128.9 46.7c1.1-1.2 2-2.5 2.8-3.9 1.6-2.8 2.5-6.1 2.5-9.6 0-3.2-0.7-6.2-2.1-8.8l1.2-0.1c3.4 3.6 6.2 7.9 8 12.7 7.4-4 15.9-6.3 24.9-6.3L168.2 30.7z" class="c"/><path d="M51.2 60l-32.1 54.1c-2.3-4.9-3.6-10.4-3.6-16.2 0-6.5 1.6-12.6 4.4-17.9C26 68.7 37.7 60.9 51.2 60z" class="c"/><path d="M218.4 83c0 9.3-2.4 18-6.6 25.5 -2.2 3.9-5 7.5-8.1 10.8 1.8-21.8 4.1-47 5.7-65.6C215.1 62 218.4 72.1 218.4 83z" class="b"/><rect x="114.9" y="57.8" width="2.2" height="7.4" class="d"/><rect x="135" y="69.9" transform="matrix(0.707 -0.7072 0.7072 0.707 -9.5418 118.9095)" width="7.4" height="2.2" class="d"/><rect x="144.4" y="92.9" width="7.4" height="2.2" class="d"/><rect x="79.6" y="92.2" width="7.4" height="2.2" class="d"/><rect x="89.3" y="69.5" transform="matrix(-0.7072 -0.707 0.707 -0.7072 108.8448 186.3182)" width="7.4" height="2.2" class="d"/><path d="M293.9 91.8c-0.6 7.7-3.6 13.8-8.7 18.2 -5.3 4.3-12.3 6.4-20.9 6.4 -10.1 0-17.8-3-23.1-9.1 -5.3-5.8-7.9-14.4-7.9-25.8 0-11.6 2.7-20.3 8.1-26.1 5.6-6.1 13.6-9.1 24-9.1 8.5 0 15.3 2.1 20.3 6.4 4.8 4.1 7.5 9.9 8.1 17.4h-8.3c-3.1 0-5.3-1.4-6.6-4.1 -0.9-1.7-2-3.2-3.3-4.5 -2.6-1.9-6-2.9-10.3-2.9 -5.9 0-10.5 1.9-13.8 5.8 -3.1 3.9-4.6 9.6-4.6 17 0 7.2 1.6 12.8 4.6 16.7 3 4 7.4 6 13.4 6 4.1 0 7.6-1 10.3-3.1 2.5-1.9 4.2-5 5.2-9.3H293.9z" class="c"/><path d="M300.6 48.2h7c1.8 0 3.4 0.6 4.6 1.8 1.3 1.2 1.9 2.7 1.9 4.6v60.2h-13.6V48.2z" class="c"/><path d="M325.9 110.1c-2.7-2.3-4.6-5.5-5.8-9.4 -1.2-3.9-1.7-8-1.7-12.3 0-3.5 0.5-7 1.5-10.5 1-3.5 2.5-6.4 4.6-8.7 3.4-3.9 7.7-6.2 13-6.9 5.3-0.7 10.1-0.3 14.3 1.3 4.9 1.9 8.5 5.3 10.8 10.1 2.2 4.3 3.3 9.2 3.3 14.9 0 4.1-0.5 7.7-1.4 10.7 -0.9 3-2.1 5.5-3.5 7.6 -3.1 4.3-7 6.9-11.8 7.9 -4.3 1.2-8.6 1.3-12.9 0.3C332 114.1 328.5 112.5 325.9 110.1zM335.2 76.1c-2.7 3-3.9 7.4-3.7 13.3 0.3 5.9 1.4 10 3.3 12.3 0.8 1 2.1 1.9 4.1 2.6 1.9 0.7 3.9 0.8 5.9 0.2 2-0.6 3.8-2 5.3-4.4 1.6-2.3 2.4-6.1 2.5-11.2 0-4.6-0.7-8.1-2.2-10.5 -1.5-2.3-3.2-3.8-5.1-4.5 -1.9-0.6-3.9-0.7-5.8-0.1C337.6 74.4 336.2 75.2 335.2 76.1z" class="c"/><path d="M416.2 63.3v30.2c0 9.2-2.4 15.2-7.2 18 -4.8 2.8-10 4.3-15.7 4.3 -5.6-0.3-10.6-1.8-15.2-4.6 -4.6-2.8-6.9-8.7-6.9-17.6V63.3h13.6v32.9c0 3.1 0.9 5.4 2.7 6.8 1.8 1.4 3.9 2.1 6.2 2.1 2.3 0 4.4-0.7 6.3-2.1s2.8-3.7 2.8-6.8V69.9c0-1.8 0.6-3.4 1.8-4.6 1.2-1.3 2.8-1.9 4.7-1.9H416.2z" class="c"/><path d="M455.5 48h6.6c1.8 0 3.4 0.7 4.6 2 1.3 1.4 1.9 2.9 1.9 4.6V92.3c0 9.2-2.6 15.4-7.9 18.6 -5.3 3.2-11 4.8-17.2 4.8 -3.4 0-6.7-0.5-9.9-1.6 -3.2-1.1-5.8-2.9-7.7-5.3 -3.7-4.8-5.6-11.3-5.6-19.6 0-8.1 1.9-14.7 5.6-19.6 3.9-5 8.8-7.6 14.9-7.6 3.2 0 6.1 0.6 8.5 1.9 2.6 1.5 4.6 3.6 6.2 6V48zM433.5 88.7c0 5.2 1 9.1 2.9 11.8 1.9 2.7 4.7 4.1 8.3 4.1 3.5 0 6.2-1.4 8.1-4.1 1.8-2.7 2.7-6.7 2.7-11.8 0-4.6-1-8.3-2.9-11 -2.1-2.6-4.8-3.9-8.3-3.9 -3.4 0-6 1.4-7.9 4.1C434.4 80.4 433.5 84 433.5 88.7z" class="c"/><path d="M512.1 114.8H498.4v-24.8l-24.2-41.8H491l14.1 28.7 11.4-24.8c1.3-2.6 3.4-3.9 6.4-3.9h11l-21.9 41.8V114.8z" class="c"/><path d="M575.9 63.3v30.2c0 9.2-2.4 15.2-7.2 18 -4.8 2.8-10 4.3-15.7 4.3 -5.6-0.3-10.6-1.8-15.2-4.6 -4.6-2.8-6.9-8.7-6.9-17.6V63.3h13.6v32.9c0 3.1 0.9 5.4 2.7 6.8 1.8 1.4 3.9 2.1 6.2 2.1 2.3 0 4.4-0.7 6.3-2.1s2.8-3.7 2.8-6.8V69.9c0-1.8 0.6-3.4 1.8-4.6 1.2-1.3 2.8-1.9 4.7-1.9H575.9z" class="c"/><path d="M617.7 111.7v-3.3c-2.3 3.6-5.5 5.9-9.4 6.8 -3.9 0.9-7.8 0.6-11.7-1 -3.9-1.5-7.2-4.4-10-8.6 -2.8-4.2-4.2-9.7-4.2-16.6 0-8 1.8-14.5 5.5-19.5 3.7-5 9.6-7.5 17.7-7.5 6.2 0 11.9 1.7 17.2 5 5.3 3.4 7.9 9.6 7.9 18.6v27.3c0 9-2.6 15.2-7.9 18.5 -5.3 3.3-11 4.9-17.2 4.9 -11.9 0-19.2-5.6-22.1-16.7H597.7c1 1.8 2.6 3.2 4.7 4.2 2.1 1 4.3 1.2 6.4 0.8 2.1-0.5 4.1-1.7 5.8-3.8C616.4 118.9 617.4 115.8 617.7 111.7zM595.6 89.4c0 8.9 2.6 13.8 7.8 14.8 5.2 1 9-0.2 11.4-3.6 1.2-1.4 2-3.6 2.5-6.7 0.5-3 0.6-6 0.1-9 -0.4-3-1.5-5.6-3.2-7.9 -1.7-2.3-4.1-3.5-7.4-3.5 -4.4 0-7.4 1.6-8.9 4.8C596.3 81.6 595.6 85.3 595.6 89.4z" class="c"/><path d="M668.4 88.8c-1.8 0.9-4.3 1.7-7.6 2.5 -3 0.6-4.5 1-4.5 1 -2.3 0.6-4 1.5-5 2.5 -0.9 1.4-1.4 2.8-1.4 4.3 0 1.9 0.6 3.5 1.7 4.6 1.2 1 2.8 1.6 5 1.6 3.6 0 6.5-1 8.5-3.1s3.1-4.9 3.1-8.5V88.8zM671.5 112.7c-2.7 1.4-5.6 2.3-8.6 2.6 -3 0.3-5.7 0.5-8 0.5 -4.6 0-8.7-1.3-12.2-3.8 -3.5-2.5-5.2-6.7-5.2-12.5 0-5.4 1.6-9.3 4.7-11.6 3.2-2.3 7.2-3.9 12.1-4.6 0.6 0 1.4-0.1 2.3-0.3 0.9-0.2 1.9-0.4 3.1-0.5 5.7-0.8 8.5-2.5 8.5-5 0-1.9-1-3.2-3-3.8 -2-0.6-3.8-0.9-5.5-0.9 -1.8 0-3.4 0.3-4.8 0.8 -1.4 0.5-2.5 1.5-3.1 2.9h-13c0.5-4 2.3-7.3 5.4-9.9 3.5-3 8.5-4.5 14.9-4.5 7.2 0 12.7 1.2 16.3 3.7 3.7 2.6 5.6 6.2 5.6 10.8v17.6c0 5.2-0.9 9.2-2.8 12.1C676.3 109.3 674 111.4 671.5 112.7z" class="c"/></svg>